<svg aria-hidden="true" style="width:0;height:0;position:absolute;overflow:hidden" xmlns="http://www.w3.org/2000/svg"><defs><symbol id="icon-search" viewBox="0 0 24 24"><path d="M16.041 15.856a.995.995 0 0 0-.186.186A6.97 6.97 0 0 1 11 18c-1.933 0-3.682-.782-4.95-2.05S4 12.933 4 11s.782-3.682 2.05-4.95S9.067 4 11 4s3.682.782 4.95 2.05S18 9.067 18 11a6.971 6.971 0 0 1-1.959 4.856zm5.666 4.437-3.675-3.675A8.967 8.967 0 0 0 20 11c0-2.485-1.008-4.736-2.636-6.364S13.485 2 11 2 6.264 3.008 4.636 4.636 2 8.515 2 11s1.008 4.736 2.636 6.364S8.515 20 11 20a8.967 8.967 0 0 0 5.618-1.968l3.675 3.675a.999.999 0 1 0 1.414-1.414z"/></symbol><symbol id="icon-heart" viewBox="0 0 32 32"><path fill="#ff6b08" style="fill:var(--color1,#ff6b08)" d="m16 30.144-2.24-2.217C5.44 20.64 0 15.726 0 9.71 0 4.793 3.84.995 8.8.995c2.72.002 5.44 1.269 7.2 3.326A9.64 9.64 0 0 1 23.195.998h.005c4.96 0 8.8 3.801 8.8 8.711 0 6.021-5.44 10.933-13.76 18.217L16 30.145z"/></symbol><symbol id="icon-film1" viewBox="0 0 32 32"><path stroke-linejoin="round" stroke-linecap="round" stroke-width="2.667" d="M26.427 3.606H5.574c-1.605 0-2.907 1.239-2.907 2.768V26.23c0 1.529 1.301 2.768 2.907 2.768h20.853c1.605 0 2.907-1.239 2.907-2.768V6.374c0-1.529-1.301-2.768-2.907-2.768zM9.333 3.606v25.391M22.667 3.606v25.391M2.667 16.301h26.667M2.667 9.954h6.667M2.667 22.649h6.667M22.667 22.649h6.667M22.667 9.954h6.667"/></symbol><symbol id="icon-film" viewBox="0 0 30 28"><path d="M6 25v-2c0-.547-.453-1-1-1H3c-.547 0-1 .453-1 1v2c0 .547.453 1 1 1h2c.547 0 1-.453 1-1zm0-6v-2c0-.547-.453-1-1-1H3c-.547 0-1 .453-1 1v2c0 .547.453 1 1 1h2c.547 0 1-.453 1-1zm0-6v-2c0-.547-.453-1-1-1H3c-.547 0-1 .453-1 1v2c0 .547.453 1 1 1h2c.547 0 1-.453 1-1zm16 12v-8c0-.547-.453-1-1-1H9c-.547 0-1 .453-1 1v8c0 .547.453 1 1 1h12c.547 0 1-.453 1-1zM6 7V5c0-.547-.453-1-1-1H3c-.547 0-1 .453-1 1v2c0 .547.453 1 1 1h2c.547 0 1-.453 1-1zm22 18v-2c0-.547-.453-1-1-1h-2c-.547 0-1 .453-1 1v2c0 .547.453 1 1 1h2c.547 0 1-.453 1-1zm-6-12V5c0-.547-.453-1-1-1H9c-.547 0-1 .453-1 1v8c0 .547.453 1 1 1h12c.547 0 1-.453 1-1zm6 6v-2c0-.547-.453-1-1-1h-2c-.547 0-1 .453-1 1v2c0 .547.453 1 1 1h2c.547 0 1-.453 1-1zm0-6v-2c0-.547-.453-1-1-1h-2c-.547 0-1 .453-1 1v2c0 .547.453 1 1 1h2c.547 0 1-.453 1-1zm0-6V5c0-.547-.453-1-1-1h-2c-.547 0-1 .453-1 1v2c0 .547.453 1 1 1h2c.547 0 1-.453 1-1zm2-2.5v21c0 1.375-1.125 2.5-2.5 2.5h-25A2.507 2.507 0 0 1 0 25.5v-21C0 3.125 1.125 2 2.5 2h25C28.875 2 30 3.125 30 4.5z"/></symbol><symbol id="icon-close" viewBox="0 0 20 32"><path d="M19.413 9.412c.781-.781.781-2.05 0-2.831s-2.05-.781-2.831 0l-6.581 6.587-6.588-6.581c-.781-.781-2.05-.781-2.831 0s-.781 2.05 0 2.831l6.588 6.581-6.581 6.587c-.781.781-.781 2.05 0 2.831s2.05.781 2.831 0l6.581-6.588 6.587 6.581c.781.781 2.05.781 2.831 0s.781-2.05 0-2.831l-6.588-6.581 6.581-6.588z"/></symbol><symbol id="icon-user" viewBox="0 0 24 24"><path d="M12 22c5.523 0 10-4.477 10-10S17.523 2 12 2 2 6.477 2 12s4.477 10 10 10Zm3-12a3 3 0 1 1-6 0 3 3 0 0 1 6 0Zm-9 7a7.489 7.489 0 0 1 6-3 7.489 7.489 0 0 1 6 3 7.489 7.489 0 0 1-6 3 7.489 7.489 0 0 1-6-3Z"/></symbol><symbol id="icon-logout" viewBox="0 0 24 24"><path d="M4 12a1 1 0 0 0 1 1h7.59l-2.3 2.29a1 1 0 0 0 0 1.42 1 1 0 0 0 1.42 0l4-4a1 1 0 0 0 .21-.33 1 1 0 0 0 0-.76 1 1 0 0 0-.21-.33l-4-4a1 1 0 1 0-1.42 1.42l2.3 2.29H5a1 1 0 0 0-1 1ZM17 2H7a3 3 0 0 0-3 3v3a1 1 0 0 0 2 0V5a1 1 0 0 1 1-1h10a1 1 0 0 1 1 1v14a1 1 0 0 1-1 1H7a1 1 0 0 1-1-1v-3a1 1 0 0 0-2 0v3a3 3 0 0 0 3 3h10a3 3 0 0 0 3-3V5a3 3 0 0 0-3-3Z"/></symbol></defs></svg>