<svg aria-hidden="true" style="width:0;height:0;position:absolute;overflow:hidden" xmlns="http://www.w3.org/2000/svg"><defs><symbol id="icon-dots" viewBox="0 0 20 20"><path d="M10.001 7.8a2.2 2.2 0 1 0 0 4.402A2.2 2.2 0 0 0 10 7.8zm-7 0a2.2 2.2 0 1 0 0 4.402A2.2 2.2 0 0 0 3 7.8zm14 0a2.2 2.2 0 1 0 0 4.402A2.2 2.2 0 0 0 17 7.8z"/></symbol><symbol id="icon-arrow_right" viewBox="0 0 24 24"><path d="M8.578 16.594 13.172 12 8.578 7.406 9.984 6l6 6-6 6z"/></symbol><symbol id="icon-arrow_left" viewBox="0 0 24 24"><path d="M15.422 16.594 14.016 18l-6-6 6-6 1.406 1.406L10.828 12z"/></symbol><symbol id="icon-heart" viewBox="0 0 34 32"><path fill="#ff6b08" style="fill:var(--color1,#ff6b08)" d="m17.231 31.705-2.412-2.412C5.859 21.367.001 16.025.001 9.478.001 4.136 4.136.001 9.478.001c2.929 0 5.858 1.378 7.754 3.618 1.895-2.24 4.825-3.618 7.754-3.618 5.342 0 9.477 4.135 9.477 9.477 0 6.548-5.858 11.889-14.818 19.815l-2.412 2.412z"/></symbol><symbol id="icon-close" viewBox="0 0 32 32"><path stroke-width="2.133" d="m8.533 8.533 14.933 14.933m-14.933.001L23.466 8.534"/></symbol><symbol id="icon-search" viewBox="0 0 32 32"><path fill="none" stroke="#fff" style="stroke:var(--color2,#fff)" stroke-linejoin="round" stroke-linecap="round" stroke-width="2.667" d="M14.667 25.333c5.891 0 10.667-4.776 10.667-10.667S20.558 3.999 14.667 3.999v0C8.776 3.999 4 8.775 4 14.666s4.776 10.667 10.667 10.667v0zM28 28l-5.8-5.8"/></symbol></defs></svg>